<!DOCTYPE svg PUBLIC "-//W3C//DTD SVG 1.1//EN" "http://www.w3.org/Graphics/SVG/1.1/DTD/svg11.dtd">
<!-- Uploaded to: SVG Repo, www.svgrepo.com, Transformed by: SVG Repo Mixer Tools -->
<svg width="800px" height="800px" viewBox="0 0 24 24" fill="none" xmlns="http://www.w3.org/2000/svg">
<g id="SVGRepo_bgCarrier" stroke-width="0"/>
<g id="SVGRepo_tracerCarrier" stroke-linecap="round" stroke-linejoin="round"/>
<g id="SVGRepo_iconCarrier"> <path d="M4 4V20M9 10H15C15.5523 10 16 9.55228 16 9V5C16 4.44772 15.5523 4 15 4H9C8.44772 4 8 4.44772 8 5V9C8 9.55228 8.44772 10 9 10ZM9 20H19C19.5523 20 20 19.5523 20 19V15C20 14.4477 19.5523 14 19 14H9C8.44772 14 8 14.4477 8 15V19C8 19.5523 8.44772 20 9 20Z" stroke="#ffffff" stroke-width="2" stroke-linecap="round" stroke-linejoin="round"/> </g>
</svg>